<svg xmlns="http://www.w3.org/2000/svg" width="96" height="96" fill="none" viewBox="0 0 96 96" id="clapperboard">
  <path fill="url(#paint0_linear_707_6672)" fill-rule="evenodd" d="M15.2167 21.8919C11.7492 22.821 9.69144 26.3852 10.6206 29.8527L11.4473 32.9382L12.4323 36.6142L12.8082 38.017C12.6081 38.6422 12.5001 39.3086 12.5001 40.0001V46.0001V69.3556V83.0002C12.5001 86.59 15.4102 89.5002 19.0001 89.5002H78.0001C81.5899 89.5002 84.5001 86.59 84.5001 83.0002V70.3224V56.0618V46.0001V40.0001C84.5001 36.4103 81.5899 33.5002 78.0001 33.5002H50.1342H33.7133L76.7366 21.9721C79.9892 21.1005 81.9195 17.7572 81.0479 14.5046L80.2519 11.5336L80.1672 11.2177C79.2381 7.7502 75.6739 5.69241 72.2064 6.62153L45.29 13.8337L15.2167 21.8919ZM79.5001 43.5001V40.0001C79.5001 39.1717 78.8285 38.5002 78.0001 38.5002H75.9666L70.4666 43.5001H79.5001ZM63.0336 43.5001H56.4666L61.9666 38.5002H68.5336L63.0336 43.5001ZM49.0336 43.5001H42.4666L47.9666 38.5002H50.1342H54.5336L49.0336 43.5001ZM35.0336 43.5001L40.5336 38.5002H33.9666L28.4666 43.5001H35.0336ZM21.0336 43.5001H17.5001V40.0001C17.5001 39.1717 18.1717 38.5002 19.0001 38.5002H26.5336L21.0336 43.5001ZM17.5001 48.5001L79.5001 48.5001V56.0618V70.3224V83.0002C79.5001 83.8286 78.8285 84.5002 78.0001 84.5002H19.0001C18.1717 84.5002 17.5001 83.8286 17.5001 83.0002V69.3556V48.5001ZM15.4502 28.5586C15.2358 27.7584 15.7106 26.9359 16.5108 26.7215L18.407 26.2134L25.7554 30.4561L16.6149 32.9053L16.2769 31.6441L15.4502 28.5586ZM32.5856 28.6259L25.2371 24.3833L31.9317 22.5895L39.2802 26.8321L32.5856 28.6259ZM46.1103 25.002L52.8027 23.2088L45.4542 18.9661L38.7619 20.7593L46.1103 25.002ZM66.3251 19.5854L59.6328 21.3787L52.2843 17.136L58.9766 15.3428L66.3251 19.5854ZM73.1552 17.7553L65.8068 13.5127L73.5005 11.4512C74.3007 11.2367 75.1232 11.7116 75.3376 12.5118L75.4222 12.8277L76.2183 15.7987C76.3751 16.384 76.0278 16.9856 75.4425 17.1425L73.1552 17.7553ZM57.9497 60.3227C62.3966 62.8015 62.3966 69.1988 57.9497 71.6776L48.415 76.9927C44.0824 79.4079 38.7501 76.2755 38.7501 71.3152V60.6851C38.7501 55.7248 44.0824 52.5924 48.415 55.0076L57.9497 60.3227ZM55.5152 67.3103C56.5414 66.7383 56.5414 65.262 55.5152 64.69L45.9804 59.3749C44.9806 58.8175 43.7501 59.5404 43.7501 60.6851V71.3152C43.7501 72.4599 44.9806 73.1828 45.9804 72.6254L55.5152 67.3103Z" clip-rule="evenodd"></path>
  <defs>
    <linearGradient id="paint0_linear_707_6672" x1="47.449" x2="47.449" y1="6.398" y2="89.5" gradientUnits="userSpaceOnUse">
      <stop stop-color="#D9008F"></stop>
      <stop offset="1" stop-color="#FA6900"></stop>
    </linearGradient>
  </defs>
</svg>
